<svg version="1.1" viewBox="0.0 0.0 32.0 32.0" fill="none" stroke="none" stroke-linecap="square" stroke-miterlimit="10" xmlns:xlink="http://www.w3.org/1999/xlink" xmlns="http://www.w3.org/2000/svg"><clipPath id="p.0"><path d="m0 0l32.0 0l0 32.0l-32.0 0l0 -32.0z" clip-rule="nonzero"/></clipPath><g clip-path="url(#p.0)"><path fill="#000000" fill-opacity="0.0" d="m0 0l32.0 0l0 32.0l-32.0 0z" fill-rule="evenodd"/><path fill="#000000" fill-opacity="0.0" d="m-10.265092 -12.362205l19.52756 0l0 51.716537l-19.52756 0z" fill-rule="evenodd"/><path fill="#38b5fc" d="m2.359908 3.5815437l8.9375 0q0.6875 0 1.15625 0.43750024q0.46875 0.4375 0.46875 1.125q0 0.671875 -0.46875 1.09375q-0.46875 0.40625 -1.15625 0.40625l-7.46875 0l0.234375 -0.453125l0 5.203125l-0.203125 -0.21875l6.234375 0q0.6875 0 1.15625 0.4375q0.46875 0.4375 0.46875 1.140625q0 0.65625 -0.46875 1.078125q-0.46875 0.40625 -1.15625 0.40625l-6.15625 0l0.125 -0.203125l0 5.374999l-0.203125 -0.234375l7.4375 0q0.6875 0 1.15625 0.46875q0.46875 0.46875 0.46875 1.078125q0 0.65625 -0.46875 1.09375q-0.46875 0.421875 -1.15625 0.421875l-8.9375 0q-0.6875 0 -1.15625 -0.46875q-0.46874994 -0.46875 -0.46874994 -1.15625l0 -15.406249q0 -0.6875 0.46874994 -1.15625q0.46875 -0.46875024 1.15625 -0.46875024z" fill-rule="nonzero"/><path fill="#000000" fill-opacity="0.0" d="m21.498688 -7.3543305l-19.52756 0l0 51.716537l19.52756 0z" fill-rule="evenodd"/><path fill="#38b5fc" d="m14.643003 8.558167q0.375 0 0.78125 0.203125q0.421875 0.203125 0.640625 0.515625l6.46875 9.968751l-1.328125 -0.046875l6.640625 -9.921876q0.5 -0.71875 1.296875 -0.71875q0.640625 0 1.140625 0.453125q0.515625 0.453125 0.515625 1.171875l0 15.437501q0 0.6875 -0.453125 1.15625q-0.453125 0.46875 -1.203125 0.46875q-0.734375 0 -1.203125 -0.46875q-0.46875 -0.46875 -0.46875 -1.15625l0 -12.562501l1.046875 0.25l-5.4375 8.281251q-0.25 0.296875 -0.609375 0.515625q-0.359375 0.203125 -0.734375 0.1875q-0.34375 0.015625 -0.703125 -0.1875q-0.359375 -0.21875 -0.59375 -0.515625l-5.09375 -8.046876l0.6875 -1.40625l0 13.484376q0 0.6875 -0.421875 1.15625q-0.421875 0.46875 -1.125 0.46875q-0.65625 0 -1.09375 -0.46875q-0.421875 -0.46875 -0.421875 -1.15625l0 -15.437501q0 -0.65625 0.484375 -1.140625q0.5 -0.484375 1.1875 -0.484375z" fill-rule="nonzero"/></g></svg>